<svg xmlns="http://www.w3.org/2000/svg" width="1672" height="941" viewBox="0 0 1672 941" shape-rendering="crispEdges">
  <rect x="0.00" y="0.00" width="1672.00" height="941.00" fill="#7aa35a"/>
  <rect x="1119.00" y="466.00" width="6.00" height="3.00" fill="#456a3b"/>
  <rect x="576.00" y="108.00" width="6.00" height="3.00" fill="#7da35b"/>
  <rect x="1139.00" y="398.00" width="6.00" height="3.00" fill="#7da35b"/>
  <rect x="603.00" y="91.00" width="6.00" height="3.00" fill="#456a3b"/>
  <rect x="344.00" y="867.00" width="6.00" height="3.00" fill="#7da35b"/>
  <rect x="223.00" y="342.00" width="6.00" height="3.00" fill="#7da35b"/>
  <rect x="997.00" y="88.00" width="6.00" height="3.00" fill="#456a3b"/>
  <rect x="1392.00" y="430.00" width="6.00" height="3.00" fill="#7da35b"/>
  <rect x="772.00" y="483.00" width="6.00" height="3.00" fill="#7da35b"/>
  <rect x="1297.00" y="184.00" width="6.00" height="3.00" fill="#456a3b"/>
  <rect x="742.00" y="43.00" width="6.00" height="3.00" fill="#7da35b"/>
  <rect x="473.00" y="902.00" width="6.00" height="3.00" fill="#7da35b"/>
  <rect x="347.00" y="880.00" width="6.00" height="3.00" fill="#456a3b"/>
  <rect x="292.00" y="417.00" width="6.00" height="3.00" fill="#7da35b"/>
  <rect x="273.00" y="194.00" width="6.00" height="3.00" fill="#7da35b"/>
  <rect x="1098.00" y="551.00" width="6.00" height="3.00" fill="#456a3b"/>
  <rect x="1391.00" y="738.00" width="6.00" height="3.00" fill="#7da35b"/>
  <rect x="848.00" y="380.00" width="6.00" height="3.00" fill="#7da35b"/>
  <rect x="1411.00" y="670.00" width="6.00" height="3.00" fill="#456a3b"/>
  <rect x="875.00" y="363.00" width="6.00" height="3.00" fill="#7da35b"/>
  <rect x="616.00" y="218.00" width="6.00" height="3.00" fill="#7da35b"/>
  <rect x="495.00" y="614.00" width="6.00" height="3.00" fill="#456a3b"/>
  <rect x="1269.00" y="360.00" width="6.00" height="3.00" fill="#7da35b"/>
  <rect x="12.00" y="702.00" width="6.00" height="3.00" fill="#7da35b"/>
  <rect x="1044.00" y="755.00" width="6.00" height="3.00" fill="#456a3b"/>
  <rect x="1569.00" y="456.00" width="6.00" height="3.00" fill="#7da35b"/>
  <rect x="1014.00" y="315.00" width="6.00" height="3.00" fill="#7da35b"/>
  <rect x="745.00" y="253.00" width="6.00" height="3.00" fill="#456a3b"/>
  <rect x="619.00" y="231.00" width="6.00" height="3.00" fill="#7da35b"/>
  <rect x="564.00" y="689.00" width="6.00" height="3.00" fill="#7da35b"/>
  <rect x="545.00" y="466.00" width="6.00" height="3.00" fill="#456a3b"/>
  <rect x="1370.00" y="823.00" width="6.00" height="3.00" fill="#7da35b"/>
  <rect x="11.00" y="89.00" width="6.00" height="3.00" fill="#7da35b"/>
  <rect x="1120.00" y="652.00" width="6.00" height="3.00" fill="#456a3b"/>
  <rect x="31.00" y="21.00" width="6.00" height="3.00" fill="#7da35b"/>
  <rect x="1147.00" y="635.00" width="6.00" height="3.00" fill="#7da35b"/>
  <rect x="888.00" y="490.00" width="6.00" height="3.00" fill="#456a3b"/>
  <rect x="767.00" y="886.00" width="6.00" height="3.00" fill="#7da35b"/>
  <rect x="1541.00" y="632.00" width="6.00" height="3.00" fill="#7da35b"/>
  <rect x="284.00" y="53.00" width="6.00" height="3.00" fill="#456a3b"/>
  <rect x="1316.00" y="106.00" width="6.00" height="3.00" fill="#7da35b"/>
  <rect x="189.00" y="728.00" width="6.00" height="3.00" fill="#7da35b"/>
  <rect x="1286.00" y="587.00" width="6.00" height="3.00" fill="#456a3b"/>
  <rect x="1017.00" y="525.00" width="6.00" height="3.00" fill="#7da35b"/>
  <rect x="891.00" y="503.00" width="6.00" height="3.00" fill="#7da35b"/>
  <line x1="133.76" y1="677.52" x2="551.76" y2="545.78" stroke="#c49a5a" stroke-width="44" stroke-linecap="square"/>
  <line x1="133.76" y1="677.52" x2="551.76" y2="545.78" stroke="#d6b777" stroke-width="23" stroke-linecap="square"/>
  <line x1="551.76" y1="545.78" x2="869.44" y2="517.55" stroke="#c49a5a" stroke-width="44" stroke-linecap="square"/>
  <line x1="551.76" y1="545.78" x2="869.44" y2="517.55" stroke="#d6b777" stroke-width="23" stroke-linecap="square"/>
  <line x1="869.44" y1="517.55" x2="1304.16" y2="404.63" stroke="#c49a5a" stroke-width="44" stroke-linecap="square"/>
  <line x1="869.44" y1="517.55" x2="1304.16" y2="404.63" stroke="#d6b777" stroke-width="23" stroke-linecap="square"/>
  <line x1="1304.16" y1="404.63" x2="1605.12" y2="395.22" stroke="#c49a5a" stroke-width="44" stroke-linecap="square"/>
  <line x1="1304.16" y1="404.63" x2="1605.12" y2="395.22" stroke="#d6b777" stroke-width="23" stroke-linecap="square"/>
  <line x1="869.44" y1="517.55" x2="836.00" y2="225.84" stroke="#c49a5a" stroke-width="44" stroke-linecap="square"/>
  <line x1="869.44" y1="517.55" x2="836.00" y2="225.84" stroke="#d6b777" stroke-width="23" stroke-linecap="square"/>
  <line x1="551.76" y1="545.78" x2="418.00" y2="263.48" stroke="#c49a5a" stroke-width="44" stroke-linecap="square"/>
  <line x1="551.76" y1="545.78" x2="418.00" y2="263.48" stroke="#d6b777" stroke-width="23" stroke-linecap="square"/>
  <line x1="1086.80" y1="470.50" x2="1203.84" y2="733.98" stroke="#c49a5a" stroke-width="44" stroke-linecap="square"/>
  <line x1="1086.80" y1="470.50" x2="1203.84" y2="733.98" stroke="#d6b777" stroke-width="23" stroke-linecap="square"/>
  <rect x="284.24" y="234.31" width="234.08" height="85.63" fill="#7a4a2a" stroke="#2d1d18" stroke-width="3"/>
  <polygon points="265.51,238.26 401.28,188.20 537.05,238.26" fill="#b8793a" stroke="#2d1d18" stroke-width="1"/>
  <rect x="652.08" y="171.73" width="267.52" height="91.75" fill="#7a4a2a" stroke="#2d1d18" stroke-width="3"/>
  <polygon points="630.68,175.97 785.84,122.33 941.00,175.97" fill="#b8793a" stroke="#2d1d18" stroke-width="1"/>
  <rect x="1086.80" y="303.00" width="217.36" height="73.40" fill="#7a4a2a" stroke="#2d1d18" stroke-width="3"/>
  <polygon points="1069.41,306.39 1195.48,263.48 1321.55,306.39" fill="#b8793a" stroke="#2d1d18" stroke-width="1"/>
  <rect x="1170.40" y="676.11" width="217.36" height="67.28" fill="#7a4a2a" stroke="#2d1d18" stroke-width="3"/>
  <polygon points="1153.01,679.21 1279.08,639.88 1405.15,679.21" fill="#b8793a" stroke="#2d1d18" stroke-width="1"/>
  <polygon points="1371.04,131.74 1588.40,225.84 1521.52,357.58 1304.16,357.58 1237.28,235.25" fill="#3f3938" stroke="#2d1d18" stroke-width="4"/>
  <ellipse cx="1437.92" cy="282.30" rx="83.60" ry="75.28" fill="#171514" stroke="#2d1d18" stroke-width="3"/>
  <ellipse cx="329.00" cy="348.00" rx="12.00" ry="10.00" fill="#456a3b" stroke="#2d1d18" stroke-width="1"/>
  <rect x="327.00" y="354.00" width="4.00" height="14.00" fill="#4a2c1d"/>
  <ellipse cx="1154.00" cy="10.00" rx="12.00" ry="10.00" fill="#456a3b" stroke="#2d1d18" stroke-width="1"/>
  <rect x="1152.00" y="16.00" width="4.00" height="14.00" fill="#4a2c1d"/>
  <ellipse cx="1575.00" cy="290.00" rx="12.00" ry="10.00" fill="#456a3b" stroke="#2d1d18" stroke-width="1"/>
  <rect x="1573.00" y="296.00" width="4.00" height="14.00" fill="#4a2c1d"/>
  <ellipse cx="983.00" cy="879.00" rx="12.00" ry="10.00" fill="#456a3b" stroke="#2d1d18" stroke-width="1"/>
  <rect x="981.00" y="885.00" width="4.00" height="14.00" fill="#4a2c1d"/>
  <ellipse cx="696.00" cy="301.00" rx="12.00" ry="10.00" fill="#456a3b" stroke="#2d1d18" stroke-width="1"/>
  <rect x="694.00" y="307.00" width="4.00" height="14.00" fill="#4a2c1d"/>
  <ellipse cx="561.00" cy="20.00" rx="12.00" ry="10.00" fill="#456a3b" stroke="#2d1d18" stroke-width="1"/>
  <rect x="559.00" y="26.00" width="4.00" height="14.00" fill="#4a2c1d"/>
  <ellipse cx="1313.00" cy="769.00" rx="12.00" ry="10.00" fill="#456a3b" stroke="#2d1d18" stroke-width="1"/>
  <rect x="1311.00" y="775.00" width="4.00" height="14.00" fill="#4a2c1d"/>
  <ellipse cx="886.00" cy="271.00" rx="12.00" ry="10.00" fill="#456a3b" stroke="#2d1d18" stroke-width="1"/>
  <rect x="884.00" y="277.00" width="4.00" height="14.00" fill="#4a2c1d"/>
  <ellipse cx="1492.00" cy="247.00" rx="12.00" ry="10.00" fill="#456a3b" stroke="#2d1d18" stroke-width="1"/>
  <rect x="1490.00" y="253.00" width="4.00" height="14.00" fill="#4a2c1d"/>
  <ellipse cx="993.00" cy="27.00" rx="12.00" ry="10.00" fill="#456a3b" stroke="#2d1d18" stroke-width="1"/>
  <rect x="991.00" y="33.00" width="4.00" height="14.00" fill="#4a2c1d"/>
  <ellipse cx="752.00" cy="366.00" rx="12.00" ry="10.00" fill="#456a3b" stroke="#2d1d18" stroke-width="1"/>
  <rect x="750.00" y="372.00" width="4.00" height="14.00" fill="#4a2c1d"/>
  <ellipse cx="1451.00" cy="544.00" rx="12.00" ry="10.00" fill="#456a3b" stroke="#2d1d18" stroke-width="1"/>
  <rect x="1449.00" y="550.00" width="4.00" height="14.00" fill="#4a2c1d"/>
</svg>
