<svg xmlns="http://www.w3.org/2000/svg" width="3072" height="2048" viewBox="0 0 3072 2048" shape-rendering="crispEdges">
  <rect x="0.00" y="0.00" width="3072.00" height="2048.00" fill="#554b43"/>
  <rect x="0.00" y="0.00" width="32.00" height="32.00" fill="#554b43" stroke="#2d2927" stroke-width="1"/>
  <rect x="32.00" y="0.00" width="32.00" height="32.00" fill="#746a60" stroke="#2d2927" stroke-width="1"/>
  <rect x="64.00" y="0.00" width="32.00" height="32.00" fill="#554b43" stroke="#2d2927" stroke-width="1"/>
  <rect x="96.00" y="0.00" width="32.00" height="32.00" fill="#554b43" stroke="#2d2927" stroke-width="1"/>
  <rect x="128.00" y="0.00" width="32.00" height="32.00" fill="#746a60" stroke="#2d2927" stroke-width="1"/>
  <rect x="160.00" y="0.00" width="32.00" height="32.00" fill="#554b43" stroke="#2d2927" stroke-width="1"/>
  <rect x="192.00" y="0.00" width="32.00" height="32.00" fill="#554b43" stroke="#2d2927" stroke-width="1"/>
  <rect x="224.00" y="0.00" width="32.00" height="32.00" fill="#746a60" stroke="#2d2927" stroke-width="1"/>
  <rect x="256.00" y="0.00" width="32.00" height="32.00" fill="#554b43" stroke="#2d2927" stroke-width="1"/>
  <rect x="288.00" y="0.00" width="32.00" height="32.00" fill="#554b43" stroke="#2d2927" stroke-width="1"/>
  <rect x="320.00" y="0.00" width="32.00" height="32.00" fill="#746a60" stroke="#2d2927" stroke-width="1"/>
  <rect x="352.00" y="0.00" width="32.00" height="32.00" fill="#554b43" stroke="#2d2927" stroke-width="1"/>
  <rect x="384.00" y="0.00" width="32.00" height="32.00" fill="#554b43" stroke="#2d2927" stroke-width="1"/>
  <rect x="416.00" y="0.00" width="32.00" height="32.00" fill="#746a60" stroke="#2d2927" stroke-width="1"/>
  <rect x="448.00" y="0.00" width="32.00" height="32.00" fill="#554b43" stroke="#2d2927" stroke-width="1"/>
  <rect x="480.00" y="0.00" width="32.00" height="32.00" fill="#554b43" stroke="#2d2927" stroke-width="1"/>
  <rect x="512.00" y="0.00" width="32.00" height="32.00" fill="#746a60" stroke="#2d2927" stroke-width="1"/>
  <rect x="544.00" y="0.00" width="32.00" height="32.00" fill="#554b43" stroke="#2d2927" stroke-width="1"/>
  <rect x="576.00" y="0.00" width="32.00" height="32.00" fill="#554b43" stroke="#2d2927" stroke-width="1"/>
  <rect x="608.00" y="0.00" width="32.00" height="32.00" fill="#746a60" stroke="#2d2927" stroke-width="1"/>
  <rect x="640.00" y="0.00" width="32.00" height="32.00" fill="#554b43" stroke="#2d2927" stroke-width="1"/>
  <rect x="672.00" y="0.00" width="32.00" height="32.00" fill="#554b43" stroke="#2d2927" stroke-width="1"/>
  <rect x="704.00" y="0.00" width="32.00" height="32.00" fill="#746a60" stroke="#2d2927" stroke-width="1"/>
  <rect x="736.00" y="0.00" width="32.00" height="32.00" fill="#554b43" stroke="#2d2927" stroke-width="1"/>
  <rect x="768.00" y="0.00" width="32.00" height="32.00" fill="#554b43" stroke="#2d2927" stroke-width="1"/>
  <rect x="800.00" y="0.00" width="32.00" height="32.00" fill="#746a60" stroke="#2d2927" stroke-width="1"/>
  <rect x="832.00" y="0.00" width="32.00" height="32.00" fill="#554b43" stroke="#2d2927" stroke-width="1"/>
  <rect x="864.00" y="0.00" width="32.00" height="32.00" fill="#554b43" stroke="#2d2927" stroke-width="1"/>
  <rect x="896.00" y="0.00" width="32.00" height="32.00" fill="#746a60" stroke="#2d2927" stroke-width="1"/>
  <rect x="928.00" y="0.00" width="32.00" height="32.00" fill="#554b43" stroke="#2d2927" stroke-width="1"/>
  <rect x="960.00" y="0.00" width="32.00" height="32.00" fill="#554b43" stroke="#2d2927" stroke-width="1"/>
  <rect x="992.00" y="0.00" width="32.00" height="32.00" fill="#746a60" stroke="#2d2927" stroke-width="1"/>
  <rect x="1024.00" y="0.00" width="32.00" height="32.00" fill="#554b43" stroke="#2d2927" stroke-width="1"/>
  <rect x="1056.00" y="0.00" width="32.00" height="32.00" fill="#554b43" stroke="#2d2927" stroke-width="1"/>
  <rect x="1088.00" y="0.00" width="32.00" height="32.00" fill="#746a60" stroke="#2d2927" stroke-width="1"/>
  <rect x="1120.00" y="0.00" width="32.00" height="32.00" fill="#554b43" stroke="#2d2927" stroke-width="1"/>
  <rect x="1152.00" y="0.00" width="32.00" height="32.00" fill="#554b43" stroke="#2d2927" stroke-width="1"/>
  <rect x="1184.00" y="0.00" width="32.00" height="32.00" fill="#746a60" stroke="#2d2927" stroke-width="1"/>
  <rect x="1216.00" y="0.00" width="32.00" height="32.00" fill="#554b43" stroke="#2d2927" stroke-width="1"/>
  <rect x="1248.00" y="0.00" width="32.00" height="32.00" fill="#554b43" stroke="#2d2927" stroke-width="1"/>
  <rect x="1280.00" y="0.00" width="32.00" height="32.00" fill="#746a60" stroke="#2d2927" stroke-width="1"/>
  <rect x="1312.00" y="0.00" width="32.00" height="32.00" fill="#554b43" stroke="#2d2927" stroke-width="1"/>
  <rect x="1344.00" y="0.00" width="32.00" height="32.00" fill="#554b43" stroke="#2d2927" stroke-width="1"/>
  <rect x="1376.00" y="0.00" width="32.00" height="32.00" fill="#746a60" stroke="#2d2927" stroke-width="1"/>
  <rect x="1408.00" y="0.00" width="32.00" height="32.00" fill="#554b43" stroke="#2d2927" stroke-width="1"/>
  <rect x="1440.00" y="0.00" width="32.00" height="32.00" fill="#554b43" stroke="#2d2927" stroke-width="1"/>
  <rect x="1472.00" y="0.00" width="32.00" height="32.00" fill="#746a60" stroke="#2d2927" stroke-width="1"/>
  <rect x="1504.00" y="0.00" width="32.00" height="32.00" fill="#554b43" stroke="#2d2927" stroke-width="1"/>
  <rect x="1536.00" y="0.00" width="32.00" height="32.00" fill="#554b43" stroke="#2d2927" stroke-width="1"/>
  <rect x="1568.00" y="0.00" width="32.00" height="32.00" fill="#746a60" stroke="#2d2927" stroke-width="1"/>
  <rect x="1600.00" y="0.00" width="32.00" height="32.00" fill="#554b43" stroke="#2d2927" stroke-width="1"/>
  <rect x="1632.00" y="0.00" width="32.00" height="32.00" fill="#554b43" stroke="#2d2927" stroke-width="1"/>
  <rect x="1664.00" y="0.00" width="32.00" height="32.00" fill="#746a60" stroke="#2d2927" stroke-width="1"/>
  <rect x="1696.00" y="0.00" width="32.00" height="32.00" fill="#554b43" stroke="#2d2927" stroke-width="1"/>
  <rect x="1728.00" y="0.00" width="32.00" height="32.00" fill="#554b43" stroke="#2d2927" stroke-width="1"/>
  <rect x="1760.00" y="0.00" width="32.00" height="32.00" fill="#746a60" stroke="#2d2927" stroke-width="1"/>
  <rect x="1792.00" y="0.00" width="32.00" height="32.00" fill="#554b43" stroke="#2d2927" stroke-width="1"/>
  <rect x="1824.00" y="0.00" width="32.00" height="32.00" fill="#554b43" stroke="#2d2927" stroke-width="1"/>
  <rect x="1856.00" y="0.00" width="32.00" height="32.00" fill="#746a60" stroke="#2d2927" stroke-width="1"/>
  <rect x="1888.00" y="0.00" width="32.00" height="32.00" fill="#554b43" stroke="#2d2927" stroke-width="1"/>
  <rect x="1920.00" y="0.00" width="32.00" height="32.00" fill="#554b43" stroke="#2d2927" stroke-width="1"/>
  <rect x="1952.00" y="0.00" width="32.00" height="32.00" fill="#746a60" stroke="#2d2927" stroke-width="1"/>
  <rect x="1984.00" y="0.00" width="32.00" height="32.00" fill="#554b43" stroke="#2d2927" stroke-width="1"/>
  <rect x="2016.00" y="0.00" width="32.00" height="32.00" fill="#554b43" stroke="#2d2927" stroke-width="1"/>
  <rect x="2048.00" y="0.00" width="32.00" height="32.00" fill="#746a60" stroke="#2d2927" stroke-width="1"/>
  <rect x="2080.00" y="0.00" width="32.00" height="32.00" fill="#554b43" stroke="#2d2927" stroke-width="1"/>
  <rect x="2112.00" y="0.00" width="32.00" height="32.00" fill="#554b43" stroke="#2d2927" stroke-width="1"/>
  <rect x="2144.00" y="0.00" width="32.00" height="32.00" fill="#746a60" stroke="#2d2927" stroke-width="1"/>
  <rect x="2176.00" y="0.00" width="32.00" height="32.00" fill="#554b43" stroke="#2d2927" stroke-width="1"/>
  <rect x="2208.00" y="0.00" width="32.00" height="32.00" fill="#554b43" stroke="#2d2927" stroke-width="1"/>
  <rect x="2240.00" y="0.00" width="32.00" height="32.00" fill="#746a60" stroke="#2d2927" stroke-width="1"/>
  <rect x="2272.00" y="0.00" width="32.00" height="32.00" fill="#554b43" stroke="#2d2927" stroke-width="1"/>
  <rect x="2304.00" y="0.00" width="32.00" height="32.00" fill="#554b43" stroke="#2d2927" stroke-width="1"/>
  <rect x="2336.00" y="0.00" width="32.00" height="32.00" fill="#746a60" stroke="#2d2927" stroke-width="1"/>
  <rect x="2368.00" y="0.00" width="32.00" height="32.00" fill="#554b43" stroke="#2d2927" stroke-width="1"/>
  <rect x="2400.00" y="0.00" width="32.00" height="32.00" fill="#554b43" stroke="#2d2927" stroke-width="1"/>
  <rect x="2432.00" y="0.00" width="32.00" height="32.00" fill="#746a60" stroke="#2d2927" stroke-width="1"/>
  <rect x="2464.00" y="0.00" width="32.00" height="32.00" fill="#554b43" stroke="#2d2927" stroke-width="1"/>
  <rect x="2496.00" y="0.00" width="32.00" height="32.00" fill="#554b43" stroke="#2d2927" stroke-width="1"/>
  <rect x="2528.00" y="0.00" width="32.00" height="32.00" fill="#746a60" stroke="#2d2927" stroke-width="1"/>
  <rect x="2560.00" y="0.00" width="32.00" height="32.00" fill="#554b43" stroke="#2d2927" stroke-width="1"/>
  <rect x="2592.00" y="0.00" width="32.00" height="32.00" fill="#554b43" stroke="#2d2927" stroke-width="1"/>
  <rect x="2624.00" y="0.00" width="32.00" height="32.00" fill="#746a60" stroke="#2d2927" stroke-width="1"/>
  <rect x="2656.00" y="0.00" width="32.00" height="32.00" fill="#554b43" stroke="#2d2927" stroke-width="1"/>
  <rect x="2688.00" y="0.00" width="32.00" height="32.00" fill="#554b43" stroke="#2d2927" stroke-width="1"/>
  <rect x="2720.00" y="0.00" width="32.00" height="32.00" fill="#746a60" stroke="#2d2927" stroke-width="1"/>
  <rect x="2752.00" y="0.00" width="32.00" height="32.00" fill="#554b43" stroke="#2d2927" stroke-width="1"/>
  <rect x="2784.00" y="0.00" width="32.00" height="32.00" fill="#554b43" stroke="#2d2927" stroke-width="1"/>
  <rect x="2816.00" y="0.00" width="32.00" height="32.00" fill="#746a60" stroke="#2d2927" stroke-width="1"/>
  <rect x="2848.00" y="0.00" width="32.00" height="32.00" fill="#554b43" stroke="#2d2927" stroke-width="1"/>
  <rect x="2880.00" y="0.00" width="32.00" height="32.00" fill="#554b43" stroke="#2d2927" stroke-width="1"/>
  <rect x="2912.00" y="0.00" width="32.00" height="32.00" fill="#746a60" stroke="#2d2927" stroke-width="1"/>
  <rect x="2944.00" y="0.00" width="32.00" height="32.00" fill="#554b43" stroke="#2d2927" stroke-width="1"/>
  <rect x="2976.00" y="0.00" width="32.00" height="32.00" fill="#554b43" stroke="#2d2927" stroke-width="1"/>
  <rect x="3008.00" y="0.00" width="32.00" height="32.00" fill="#746a60" stroke="#2d2927" stroke-width="1"/>
  <rect x="3040.00" y="0.00" width="32.00" height="32.00" fill="#554b43" stroke="#2d2927" stroke-width="1"/>
  <rect x="0.00" y="32.00" width="32.00" height="32.00" fill="#746a60" stroke="#2d2927" stroke-width="1"/>
  <rect x="32.00" y="32.00" width="32.00" height="32.00" fill="#554b43" stroke="#2d2927" stroke-width="1"/>
  <rect x="64.00" y="32.00" width="32.00" height="32.00" fill="#554b43" stroke="#2d2927" stroke-width="1"/>
  <rect x="96.00" y="32.00" width="32.00" height="32.00" fill="#746a60" stroke="#2d2927" stroke-width="1"/>
  <rect x="128.00" y="32.00" width="32.00" height="32.00" fill="#554b43" stroke="#2d2927" stroke-width="1"/>
  <rect x="160.00" y="32.00" width="32.00" height="32.00" fill="#554b43" stroke="#2d2927" stroke-width="1"/>
  <rect x="192.00" y="32.00" width="32.00" height="32.00" fill="#746a60" stroke="#2d2927" stroke-width="1"/>
  <rect x="224.00" y="32.00" width="32.00" height="32.00" fill="#554b43" stroke="#2d2927" stroke-width="1"/>
  <rect x="256.00" y="32.00" width="32.00" height="32.00" fill="#554b43" stroke="#2d2927" stroke-width="1"/>
  <rect x="288.00" y="32.00" width="32.00" height="32.00" fill="#746a60" stroke="#2d2927" stroke-width="1"/>
  <rect x="320.00" y="32.00" width="32.00" height="32.00" fill="#554b43" stroke="#2d2927" stroke-width="1"/>
  <rect x="352.00" y="32.00" width="32.00" height="32.00" fill="#554b43" stroke="#2d2927" stroke-width="1"/>
  <rect x="384.00" y="32.00" width="32.00" height="32.00" fill="#746a60" stroke="#2d2927" stroke-width="1"/>
  <rect x="416.00" y="32.00" width="32.00" height="32.00" fill="#554b43" stroke="#2d2927" stroke-width="1"/>
  <rect x="448.00" y="32.00" width="32.00" height="32.00" fill="#554b43" stroke="#2d2927" stroke-width="1"/>
  <rect x="480.00" y="32.00" width="32.00" height="32.00" fill="#746a60" stroke="#2d2927" stroke-width="1"/>
  <rect x="512.00" y="32.00" width="32.00" height="32.00" fill="#554b43" stroke="#2d2927" stroke-width="1"/>
  <rect x="544.00" y="32.00" width="32.00" height="32.00" fill="#554b43" stroke="#2d2927" stroke-width="1"/>
  <rect x="576.00" y="32.00" width="32.00" height="32.00" fill="#746a60" stroke="#2d2927" stroke-width="1"/>
  <rect x="608.00" y="32.00" width="32.00" height="32.00" fill="#554b43" stroke="#2d2927" stroke-width="1"/>
  <rect x="640.00" y="32.00" width="32.00" height="32.00" fill="#554b43" stroke="#2d2927" stroke-width="1"/>
  <rect x="672.00" y="32.00" width="32.00" height="32.00" fill="#746a60" stroke="#2d2927" stroke-width="1"/>
  <rect x="704.00" y="32.00" width="32.00" height="32.00" fill="#554b43" stroke="#2d2927" stroke-width="1"/>
  <rect x="736.00" y="32.00" width="32.00" height="32.00" fill="#554b43" stroke="#2d2927" stroke-width="1"/>
  <rect x="768.00" y="32.00" width="32.00" height="32.00" fill="#746a60" stroke="#2d2927" stroke-width="1"/>
  <rect x="800.00" y="32.00" width="32.00" height="32.00" fill="#554b43" stroke="#2d2927" stroke-width="1"/>
  <rect x="832.00" y="32.00" width="32.00" height="32.00" fill="#554b43" stroke="#2d2927" stroke-width="1"/>
  <rect x="864.00" y="32.00" width="32.00" height="32.00" fill="#746a60" stroke="#2d2927" stroke-width="1"/>
  <rect x="896.00" y="32.00" width="32.00" height="32.00" fill="#554b43" stroke="#2d2927" stroke-width="1"/>
  <rect x="928.00" y="32.00" width="32.00" height="32.00" fill="#554b43" stroke="#2d2927" stroke-width="1"/>
  <rect x="960.00" y="32.00" width="32.00" height="32.00" fill="#746a60" stroke="#2d2927" stroke-width="1"/>
  <rect x="992.00" y="32.00" width="32.00" height="32.00" fill="#554b43" stroke="#2d2927" stroke-width="1"/>
  <rect x="1024.00" y="32.00" width="32.00" height="32.00" fill="#554b43" stroke="#2d2927" stroke-width="1"/>
  <rect x="1056.00" y="32.00" width="32.00" height="32.00" fill="#746a60" stroke="#2d2927" stroke-width="1"/>
  <rect x="1088.00" y="32.00" width="32.00" height="32.00" fill="#554b43" stroke="#2d2927" stroke-width="1"/>
  <rect x="1120.00" y="32.00" width="32.00" height="32.00" fill="#554b43" stroke="#2d2927" stroke-width="1"/>
  <rect x="1152.00" y="32.00" width="32.00" height="32.00" fill="#746a60" stroke="#2d2927" stroke-width="1"/>
  <rect x="1184.00" y="32.00" width="32.00" height="32.00" fill="#554b43" stroke="#2d2927" stroke-width="1"/>
  <rect x="1216.00" y="32.00" width="32.00" height="32.00" fill="#554b43" stroke="#2d2927" stroke-width="1"/>
  <rect x="1248.00" y="32.00" width="32.00" height="32.00" fill="#746a60" stroke="#2d2927" stroke-width="1"/>
  <rect x="1280.00" y="32.00" width="32.00" height="32.00" fill="#554b43" stroke="#2d2927" stroke-width="1"/>
  <rect x="1312.00" y="32.00" width="32.00" height="32.00" fill="#554b43" stroke="#2d2927" stroke-width="1"/>
  <rect x="1344.00" y="32.00" width="32.00" height="32.00" fill="#746a60" stroke="#2d2927" stroke-width="1"/>
  <rect x="1376.00" y="32.00" width="32.00" height="32.00" fill="#554b43" stroke="#2d2927" stroke-width="1"/>
  <rect x="1408.00" y="32.00" width="32.00" height="32.00" fill="#554b43" stroke="#2d2927" stroke-width="1"/>
  <rect x="1440.00" y="32.00" width="32.00" height="32.00" fill="#746a60" stroke="#2d2927" stroke-width="1"/>
  <rect x="1472.00" y="32.00" width="32.00" height="32.00" fill="#554b43" stroke="#2d2927" stroke-width="1"/>
  <rect x="1504.00" y="32.00" width="32.00" height="32.00" fill="#554b43" stroke="#2d2927" stroke-width="1"/>
  <rect x="1536.00" y="32.00" width="32.00" height="32.00" fill="#746a60" stroke="#2d2927" stroke-width="1"/>
  <rect x="1568.00" y="32.00" width="32.00" height="32.00" fill="#554b43" stroke="#2d2927" stroke-width="1"/>
  <rect x="1600.00" y="32.00" width="32.00" height="32.00" fill="#554b43" stroke="#2d2927" stroke-width="1"/>
  <rect x="1632.00" y="32.00" width="32.00" height="32.00" fill="#746a60" stroke="#2d2927" stroke-width="1"/>
  <rect x="1664.00" y="32.00" width="32.00" height="32.00" fill="#554b43" stroke="#2d2927" stroke-width="1"/>
  <rect x="1696.00" y="32.00" width="32.00" height="32.00" fill="#554b43" stroke="#2d2927" stroke-width="1"/>
  <rect x="1728.00" y="32.00" width="32.00" height="32.00" fill="#746a60" stroke="#2d2927" stroke-width="1"/>
  <rect x="1760.00" y="32.00" width="32.00" height="32.00" fill="#554b43" stroke="#2d2927" stroke-width="1"/>
  <rect x="1792.00" y="32.00" width="32.00" height="32.00" fill="#554b43" stroke="#2d2927" stroke-width="1"/>
  <rect x="1824.00" y="32.00" width="32.00" height="32.00" fill="#746a60" stroke="#2d2927" stroke-width="1"/>
  <rect x="1856.00" y="32.00" width="32.00" height="32.00" fill="#554b43" stroke="#2d2927" stroke-width="1"/>
  <rect x="1888.00" y="32.00" width="32.00" height="32.00" fill="#554b43" stroke="#2d2927" stroke-width="1"/>
  <rect x="1920.00" y="32.00" width="32.00" height="32.00" fill="#746a60" stroke="#2d2927" stroke-width="1"/>
  <rect x="1952.00" y="32.00" width="32.00" height="32.00" fill="#554b43" stroke="#2d2927" stroke-width="1"/>
  <rect x="1984.00" y="32.00" width="32.00" height="32.00" fill="#554b43" stroke="#2d2927" stroke-width="1"/>
  <rect x="2016.00" y="32.00" width="32.00" height="32.00" fill="#746a60" stroke="#2d2927" stroke-width="1"/>
  <rect x="2048.00" y="32.00" width="32.00" height="32.00" fill="#554b43" stroke="#2d2927" stroke-width="1"/>
  <rect x="2080.00" y="32.00" width="32.00" height="32.00" fill="#554b43" stroke="#2d2927" stroke-width="1"/>
  <rect x="2112.00" y="32.00" width="32.00" height="32.00" fill="#746a60" stroke="#2d2927" stroke-width="1"/>
  <rect x="2144.00" y="32.00" width="32.00" height="32.00" fill="#554b43" stroke="#2d2927" stroke-width="1"/>
  <rect x="2176.00" y="32.00" width="32.00" height="32.00" fill="#554b43" stroke="#2d2927" stroke-width="1"/>
  <rect x="2208.00" y="32.00" width="32.00" height="32.00" fill="#746a60" stroke="#2d2927" stroke-width="1"/>
  <rect x="2240.00" y="32.00" width="32.00" height="32.00" fill="#554b43" stroke="#2d2927" stroke-width="1"/>
  <rect x="2272.00" y="32.00" width="32.00" height="32.00" fill="#554b43" stroke="#2d2927" stroke-width="1"/>
  <rect x="2304.00" y="32.00" width="32.00" height="32.00" fill="#746a60" stroke="#2d2927" stroke-width="1"/>
  <rect x="2336.00" y="32.00" width="32.00" height="32.00" fill="#554b43" stroke="#2d2927" stroke-width="1"/>
  <rect x="2368.00" y="32.00" width="32.00" height="32.00" fill="#554b43" stroke="#2d2927" stroke-width="1"/>
  <rect x="2400.00" y="32.00" width="32.00" height="32.00" fill="#746a60" stroke="#2d2927" stroke-width="1"/>
  <rect x="2432.00" y="32.00" width="32.00" height="32.00" fill="#554b43" stroke="#2d2927" stroke-width="1"/>
  <rect x="2464.00" y="32.00" width="32.00" height="32.00" fill="#554b43" stroke="#2d2927" stroke-width="1"/>
  <rect x="2496.00" y="32.00" width="32.00" height="32.00" fill="#746a60" stroke="#2d2927" stroke-width="1"/>
  <rect x="2528.00" y="32.00" width="32.00" height="32.00" fill="#554b43" stroke="#2d2927" stroke-width="1"/>
  <rect x="2560.00" y="32.00" width="32.00" height="32.00" fill="#554b43" stroke="#2d2927" stroke-width="1"/>
  <rect x="2592.00" y="32.00" width="32.00" height="32.00" fill="#746a60" stroke="#2d2927" stroke-width="1"/>
  <rect x="2624.00" y="32.00" width="32.00" height="32.00" fill="#554b43" stroke="#2d2927" stroke-width="1"/>
  <rect x="2656.00" y="32.00" width="32.00" height="32.00" fill="#554b43" stroke="#2d2927" stroke-width="1"/>
  <rect x="2688.00" y="32.00" width="32.00" height="32.00" fill="#746a60" stroke="#2d2927" stroke-width="1"/>
  <rect x="2720.00" y="32.00" width="32.00" height="32.00" fill="#554b43" stroke="#2d2927" stroke-width="1"/>
  <rect x="2752.00" y="32.00" width="32.00" height="32.00" fill="#554b43" stroke="#2d2927" stroke-width="1"/>
  <rect x="2784.00" y="32.00" width="32.00" height="32.00" fill="#746a60" stroke="#2d2927" stroke-width="1"/>
  <rect x="2816.00" y="32.00" width="32.00" height="32.00" fill="#554b43" stroke="#2d2927" stroke-width="1"/>
  <rect x="2848.00" y="32.00" width="32.00" height="32.00" fill="#554b43" stroke="#2d2927" stroke-width="1"/>
  <rect x="2880.00" y="32.00" width="32.00" height="32.00" fill="#746a60" stroke="#2d2927" stroke-width="1"/>
  <rect x="2912.00" y="32.00" width="32.00" height="32.00" fill="#554b43" stroke="#2d2927" stroke-width="1"/>
  <rect x="2944.00" y="32.00" width="32.00" height="32.00" fill="#554b43" stroke="#2d2927" stroke-width="1"/>
  <rect x="2976.00" y="32.00" width="32.00" height="32.00" fill="#746a60" stroke="#2d2927" stroke-width="1"/>
  <rect x="3008.00" y="32.00" width="32.00" height="32.00" fill="#554b43" stroke="#2d2927" stroke-width="1"/>
  <rect x="3040.00" y="32.00" width="32.00" height="32.00" fill="#554b43" stroke="#2d2927" stroke-width="1"/>
  <rect x="0.00" y="64.00" width="32.00" height="32.00" fill="#554b43" stroke="#2d2927" stroke-width="1"/>
  <rect x="32.00" y="64.00" width="32.00" height="32.00" fill="#554b43" stroke="#2d2927" stroke-width="1"/>
  <rect x="64.00" y="64.00" width="32.00" height="32.00" fill="#746a60" stroke="#2d2927" stroke-width="1"/>
  <rect x="96.00" y="64.00" width="32.00" height="32.00" fill="#554b43" stroke="#2d2927" stroke-width="1"/>
  <rect x="128.00" y="64.00" width="32.00" height="32.00" fill="#554b43" stroke="#2d2927" stroke-width="1"/>
  <rect x="160.00" y="64.00" width="32.00" height="32.00" fill="#746a60" stroke="#2d2927" stroke-width="1"/>
  <rect x="192.00" y="64.00" width="32.00" height="32.00" fill="#554b43" stroke="#2d2927" stroke-width="1"/>
  <rect x="224.00" y="64.00" width="32.00" height="32.00" fill="#554b43" stroke="#2d2927" stroke-width="1"/>
  <rect x="256.00" y="64.00" width="32.00" height="32.00" fill="#746a60" stroke="#2d2927" stroke-width="1"/>
  <rect x="288.00" y="64.00" width="32.00" height="32.00" fill="#554b43" stroke="#2d2927" stroke-width="1"/>
  <rect x="320.00" y="64.00" width="32.00" height="32.00" fill="#554b43" stroke="#2d2927" stroke-width="1"/>
  <rect x="352.00" y="64.00" width="32.00" height="32.00" fill="#746a60" stroke="#2d2927" stroke-width="1"/>
  <rect x="384.00" y="64.00" width="32.00" height="32.00" fill="#554b43" stroke="#2d2927" stroke-width="1"/>
  <rect x="416.00" y="64.00" width="32.00" height="32.00" fill="#554b43" stroke="#2d2927" stroke-width="1"/>
  <rect x="448.00" y="64.00" width="32.00" height="32.00" fill="#746a60" stroke="#2d2927" stroke-width="1"/>
  <rect x="480.00" y="64.00" width="32.00" height="32.00" fill="#554b43" stroke="#2d2927" stroke-width="1"/>
  <rect x="512.00" y="64.00" width="32.00" height="32.00" fill="#554b43" stroke="#2d2927" stroke-width="1"/>
  <rect x="544.00" y="64.00" width="32.00" height="32.00" fill="#746a60" stroke="#2d2927" stroke-width="1"/>
  <rect x="576.00" y="64.00" width="32.00" height="32.00" fill="#554b43" stroke="#2d2927" stroke-width="1"/>
  <rect x="608.00" y="64.00" width="32.00" height="32.00" fill="#554b43" stroke="#2d2927" stroke-width="1"/>
  <rect x="640.00" y="64.00" width="32.00" height="32.00" fill="#746a60" stroke="#2d2927" stroke-width="1"/>
  <rect x="672.00" y="64.00" width="32.00" height="32.00" fill="#554b43" stroke="#2d2927" stroke-width="1"/>
  <rect x="704.00" y="64.00" width="32.00" height="32.00" fill="#554b43" stroke="#2d2927" stroke-width="1"/>
  <rect x="736.00" y="64.00" width="32.00" height="32.00" fill="#746a60" stroke="#2d2927" stroke-width="1"/>
  <rect x="768.00" y="64.00" width="32.00" height="32.00" fill="#554b43" stroke="#2d2927" stroke-width="1"/>
  <rect x="800.00" y="64.00" width="32.00" height="32.00" fill="#554b43" stroke="#2d2927" stroke-width="1"/>
  <rect x="832.00" y="64.00" width="32.00" height="32.00" fill="#746a60" stroke="#2d2927" stroke-width="1"/>
  <rect x="864.00" y="64.00" width="32.00" height="32.00" fill="#554b43" stroke="#2d2927" stroke-width="1"/>
</svg>
