<svg xmlns="http://www.w3.org/2000/svg" width="64" height="256" viewBox="0 0 64 256" shape-rendering="crispEdges">
  <rect x="0.00" y="0.00" width="64.00" height="256.00" fill="#3f3938"/>
  <rect x="0.00" y="0.00" width="16.00" height="16.00" fill="#3f3938" stroke="#2d2927" stroke-width="1"/>
  <rect x="16.00" y="0.00" width="16.00" height="16.00" fill="#6f6863" stroke="#2d2927" stroke-width="1"/>
  <rect x="32.00" y="0.00" width="16.00" height="16.00" fill="#3f3938" stroke="#2d2927" stroke-width="1"/>
  <rect x="48.00" y="0.00" width="16.00" height="16.00" fill="#3f3938" stroke="#2d2927" stroke-width="1"/>
  <rect x="0.00" y="16.00" width="16.00" height="16.00" fill="#6f6863" stroke="#2d2927" stroke-width="1"/>
  <rect x="16.00" y="16.00" width="16.00" height="16.00" fill="#3f3938" stroke="#2d2927" stroke-width="1"/>
  <rect x="32.00" y="16.00" width="16.00" height="16.00" fill="#3f3938" stroke="#2d2927" stroke-width="1"/>
  <rect x="48.00" y="16.00" width="16.00" height="16.00" fill="#6f6863" stroke="#2d2927" stroke-width="1"/>
  <rect x="0.00" y="32.00" width="16.00" height="16.00" fill="#3f3938" stroke="#2d2927" stroke-width="1"/>
  <rect x="16.00" y="32.00" width="16.00" height="16.00" fill="#3f3938" stroke="#2d2927" stroke-width="1"/>
  <rect x="32.00" y="32.00" width="16.00" height="16.00" fill="#6f6863" stroke="#2d2927" stroke-width="1"/>
  <rect x="48.00" y="32.00" width="16.00" height="16.00" fill="#3f3938" stroke="#2d2927" stroke-width="1"/>
  <rect x="0.00" y="48.00" width="16.00" height="16.00" fill="#3f3938" stroke="#2d2927" stroke-width="1"/>
  <rect x="16.00" y="48.00" width="16.00" height="16.00" fill="#6f6863" stroke="#2d2927" stroke-width="1"/>
  <rect x="32.00" y="48.00" width="16.00" height="16.00" fill="#3f3938" stroke="#2d2927" stroke-width="1"/>
  <rect x="48.00" y="48.00" width="16.00" height="16.00" fill="#3f3938" stroke="#2d2927" stroke-width="1"/>
  <rect x="0.00" y="64.00" width="16.00" height="16.00" fill="#6f6863" stroke="#2d2927" stroke-width="1"/>
  <rect x="16.00" y="64.00" width="16.00" height="16.00" fill="#3f3938" stroke="#2d2927" stroke-width="1"/>
  <rect x="32.00" y="64.00" width="16.00" height="16.00" fill="#3f3938" stroke="#2d2927" stroke-width="1"/>
  <rect x="48.00" y="64.00" width="16.00" height="16.00" fill="#6f6863" stroke="#2d2927" stroke-width="1"/>
  <rect x="0.00" y="80.00" width="16.00" height="16.00" fill="#3f3938" stroke="#2d2927" stroke-width="1"/>
  <rect x="16.00" y="80.00" width="16.00" height="16.00" fill="#3f3938" stroke="#2d2927" stroke-width="1"/>
  <rect x="32.00" y="80.00" width="16.00" height="16.00" fill="#6f6863" stroke="#2d2927" stroke-width="1"/>
  <rect x="48.00" y="80.00" width="16.00" height="16.00" fill="#3f3938" stroke="#2d2927" stroke-width="1"/>
  <rect x="0.00" y="96.00" width="16.00" height="16.00" fill="#3f3938" stroke="#2d2927" stroke-width="1"/>
  <rect x="16.00" y="96.00" width="16.00" height="16.00" fill="#6f6863" stroke="#2d2927" stroke-width="1"/>
  <rect x="32.00" y="96.00" width="16.00" height="16.00" fill="#3f3938" stroke="#2d2927" stroke-width="1"/>
  <rect x="48.00" y="96.00" width="16.00" height="16.00" fill="#3f3938" stroke="#2d2927" stroke-width="1"/>
  <rect x="0.00" y="112.00" width="16.00" height="16.00" fill="#6f6863" stroke="#2d2927" stroke-width="1"/>
  <rect x="16.00" y="112.00" width="16.00" height="16.00" fill="#3f3938" stroke="#2d2927" stroke-width="1"/>
  <rect x="32.00" y="112.00" width="16.00" height="16.00" fill="#3f3938" stroke="#2d2927" stroke-width="1"/>
  <rect x="48.00" y="112.00" width="16.00" height="16.00" fill="#6f6863" stroke="#2d2927" stroke-width="1"/>
  <rect x="0.00" y="128.00" width="16.00" height="16.00" fill="#3f3938" stroke="#2d2927" stroke-width="1"/>
  <rect x="16.00" y="128.00" width="16.00" height="16.00" fill="#3f3938" stroke="#2d2927" stroke-width="1"/>
  <rect x="32.00" y="128.00" width="16.00" height="16.00" fill="#6f6863" stroke="#2d2927" stroke-width="1"/>
  <rect x="48.00" y="128.00" width="16.00" height="16.00" fill="#3f3938" stroke="#2d2927" stroke-width="1"/>
  <rect x="0.00" y="144.00" width="16.00" height="16.00" fill="#3f3938" stroke="#2d2927" stroke-width="1"/>
  <rect x="16.00" y="144.00" width="16.00" height="16.00" fill="#6f6863" stroke="#2d2927" stroke-width="1"/>
  <rect x="32.00" y="144.00" width="16.00" height="16.00" fill="#3f3938" stroke="#2d2927" stroke-width="1"/>
  <rect x="48.00" y="144.00" width="16.00" height="16.00" fill="#3f3938" stroke="#2d2927" stroke-width="1"/>
  <rect x="0.00" y="160.00" width="16.00" height="16.00" fill="#6f6863" stroke="#2d2927" stroke-width="1"/>
  <rect x="16.00" y="160.00" width="16.00" height="16.00" fill="#3f3938" stroke="#2d2927" stroke-width="1"/>
  <rect x="32.00" y="160.00" width="16.00" height="16.00" fill="#3f3938" stroke="#2d2927" stroke-width="1"/>
  <rect x="48.00" y="160.00" width="16.00" height="16.00" fill="#6f6863" stroke="#2d2927" stroke-width="1"/>
  <rect x="0.00" y="176.00" width="16.00" height="16.00" fill="#3f3938" stroke="#2d2927" stroke-width="1"/>
  <rect x="16.00" y="176.00" width="16.00" height="16.00" fill="#3f3938" stroke="#2d2927" stroke-width="1"/>
  <rect x="32.00" y="176.00" width="16.00" height="16.00" fill="#6f6863" stroke="#2d2927" stroke-width="1"/>
  <rect x="48.00" y="176.00" width="16.00" height="16.00" fill="#3f3938" stroke="#2d2927" stroke-width="1"/>
  <rect x="0.00" y="192.00" width="16.00" height="16.00" fill="#3f3938" stroke="#2d2927" stroke-width="1"/>
  <rect x="16.00" y="192.00" width="16.00" height="16.00" fill="#6f6863" stroke="#2d2927" stroke-width="1"/>
  <rect x="32.00" y="192.00" width="16.00" height="16.00" fill="#3f3938" stroke="#2d2927" stroke-width="1"/>
  <rect x="48.00" y="192.00" width="16.00" height="16.00" fill="#3f3938" stroke="#2d2927" stroke-width="1"/>
  <rect x="0.00" y="208.00" width="16.00" height="16.00" fill="#6f6863" stroke="#2d2927" stroke-width="1"/>
  <rect x="16.00" y="208.00" width="16.00" height="16.00" fill="#3f3938" stroke="#2d2927" stroke-width="1"/>
  <rect x="32.00" y="208.00" width="16.00" height="16.00" fill="#3f3938" stroke="#2d2927" stroke-width="1"/>
  <rect x="48.00" y="208.00" width="16.00" height="16.00" fill="#6f6863" stroke="#2d2927" stroke-width="1"/>
  <rect x="0.00" y="224.00" width="16.00" height="16.00" fill="#3f3938" stroke="#2d2927" stroke-width="1"/>
  <rect x="16.00" y="224.00" width="16.00" height="16.00" fill="#3f3938" stroke="#2d2927" stroke-width="1"/>
  <rect x="32.00" y="224.00" width="16.00" height="16.00" fill="#6f6863" stroke="#2d2927" stroke-width="1"/>
  <rect x="48.00" y="224.00" width="16.00" height="16.00" fill="#3f3938" stroke="#2d2927" stroke-width="1"/>
  <rect x="0.00" y="240.00" width="16.00" height="16.00" fill="#3f3938" stroke="#2d2927" stroke-width="1"/>
  <rect x="16.00" y="240.00" width="16.00" height="16.00" fill="#6f6863" stroke="#2d2927" stroke-width="1"/>
  <rect x="32.00" y="240.00" width="16.00" height="16.00" fill="#3f3938" stroke="#2d2927" stroke-width="1"/>
  <rect x="48.00" y="240.00" width="16.00" height="16.00" fill="#3f3938" stroke="#2d2927" stroke-width="1"/>
</svg>
